<svg xmlns="http://www.w3.org/2000/svg" width="268" height="81"><g fill="#000" fill-rule="evenodd"><path d="M1 71h203v2H1z"/><g fill-rule="nonzero"><path d="M214.864 70.712V67.52c0-.256-.044-.428-.132-.516-.088-.088-.268-.132-.54-.132H210.4v-2.016h4.632c.912 0 1.576.208 1.992.624.416.416.624 1 .624 1.752v3.48h-2.784Zm0 6.624v-7.104h2.784v7.392c0 .752-.208 1.336-.624 1.752-.416.416-1.08.624-1.992.624H210.4v-2.016h3.792c.272 0 .452-.044.54-.132.088-.088.132-.26.132-.516Zm-5.592-12.48h2.76V80h-2.76V64.856ZM220 64.856h2.76V80H220zM227.872 67.52v9.84c0 .24.048.408.144.504.096.096.272.144.528.144h.648v2.016h-1.488c-.912 0-1.576-.208-1.992-.624-.416-.416-.624-1-.624-1.752V67.232c0-.752.208-1.336.624-1.752.416-.416 1.08-.624 1.992-.624h1.608v2.016h-.768c-.256 0-.432.044-.528.132-.096.088-.144.26-.144.516Zm5.256 4.536V74h-3.984v-1.944h3.984Zm-2.784-2.544V67.52c0-.256-.044-.428-.132-.516-.088-.088-.268-.132-.54-.132h-.744v-2.016h1.584c.928 0 1.596.208 2.004.624.408.416.612 1 .612 1.752v2.28h-2.784Zm0 7.848V73.4h2.784v4.248c0 .752-.204 1.336-.612 1.752-.408.416-1.076.624-2.004.624h-1.536v-2.016h.696c.272 0 .452-.048.54-.144.088-.096.132-.264.132-.504ZM235.336 64.856h2.76V80h-2.76zM242.152 65.504h2.76V80h-2.76V65.504Zm5.424-.648v2.112h-8.064v-2.112h8.064ZM255.712 74.768v2.088H250v-2.088h5.712ZM257.848 80h-2.784l-2.28-12.48L250.648 80h-2.76l3.048-15.144h3.72L257.848 80ZM259.192 64.856h2.76V80h-2.76V64.856ZM260.368 80v-2.112h5.616V80h-5.616Z"/></g><g fill-rule="nonzero"><path d="M1.168 13.208h10.296V59H1.168V13.208ZM4.984 59v-7.56H24.64V59H4.984ZM28.096 13.208h10.296V59H28.096zM64.24 13.208h9.432V59h-9.216L54.448 31.64V59h-9.432V13.208h9.36l9.864 27.288zM80.008 13.208h10.368V59H80.008V13.208Zm22.392 18.72v7.56H84.76v-7.56h17.64Zm2.088-18.72v7.56H84.112v-7.56h20.376Zm.576 38.232V59H84.112v-7.56h20.952ZM122.848 13.208h10.368V59h-10.368zM157.264 13.208h10.296V59h-10.296V13.208Zm10.368 24.624h10.224L187.576 59H176.56l-8.928-21.168ZM191.248 13.208h10.296V59h-10.296zM227.608 13.208h10.728L228.184 59h-12.6l-10.152-45.792h10.728l5.688 33.984zM241.936 13.208h10.368V59h-10.368V13.208Zm22.392 18.72v7.56h-17.64v-7.56h17.64Zm2.088-18.72v7.56H246.04v-7.56h20.376Zm.576 38.232V59H246.04v-7.56h20.952Z"/></g><path d="M1 0h265v2H1z"/><path stroke="#FFF" stroke-width="4" d="M.5 54.5c57.9-11.554 101.903-19.304 132.011-23.25 30.108-3.947 75.104-7.864 134.989-11.75"/><path fill-rule="nonzero" d="M140.848 31.568v-9.504c0-.672-.144-1.14-.432-1.404-.288-.264-.792-.396-1.512-.396h-12.24v-7.056H142c3.264 0 5.604.708 7.02 2.124 1.416 1.416 2.124 3.372 2.124 5.868v10.368h-10.296Z"/><path fill-rule="nonzero" d="M140.848 50.144V30.416h10.296v20.592c0 2.496-.708 4.452-2.124 5.868C147.604 58.292 145.264 59 142 59h-15.336v-7.056h12.24c.72 0 1.224-.144 1.512-.432.288-.288.432-.744.432-1.368ZM174.976 32.864V22.568c0-.672-.132-1.14-.396-1.404s-.756-.396-1.476-.396h-12.888v-7.56H176.2c3.264 0 5.592.708 6.984 2.124 1.392 1.416 2.088 3.372 2.088 5.868v12.744c0 2.448-.696 4.38-2.088 5.796-1.392 1.416-3.72 2.124-6.984 2.124h-15.12v-7.272h12.024c.72 0 1.212-.132 1.476-.396s.396-.708.396-1.332Z"/></g></svg>